<svg xmlns="http://www.w3.org/2000/svg" width="48" height="48"><g fill="#F95738" fill-rule="evenodd"><path d="M24 36.622c-13.458 0-24-4.933-24-11.229 0-6.296 10.542-11.229 24-11.229s24 4.932 24 11.229c0 6.296-10.542 11.229-24 11.229Zm0-20.458c-11.925 0-22 4.226-22 9.229 0 5.003 10.075 9.229 22 9.229s22-4.227 22-9.229c0-5.003-10.075-9.229-22-9.229Z"/><path d="M24 48C10.767 48 0 37.858 0 25.393a1 1 0 1 1 2 0C2 36.756 11.869 46 24 46s22-9.244 22-20.607a1 1 0 1 1 2 0C48 37.858 37.233 48 24 48Z"/><path d="M38.382 34.34a1.002 1.002 0 0 1-.58-1.816c1.019-.724 2.233-1.888 2.233-3.317 0-3.239-6.443-6.707-16.035-6.707S7.964 25.968 7.964 29.207c0 .944.524 1.882 1.557 2.785a1 1 0 0 1-1.316 1.506c-1.466-1.282-2.241-2.766-2.241-4.291 0-4.882 7.922-8.707 18.036-8.707 10.113 0 18.035 3.825 18.035 8.707 0 1.807-1.063 3.518-3.075 4.948a.995.995 0 0 1-.578.185Z"/><ellipse cx="32.73" cy="29.139" rx="1.926" ry=".836"/><ellipse cx="26.87" cy="27.015" rx="2.915" ry="1.267"/><path d="M16.629 11.955a1 1 0 0 1-1-1V4.549a1 1 0 0 1 2 0v6.406a1 1 0 0 1-1 1ZM24 11.955a1 1 0 0 1-1-1V1a1 1 0 0 1 2 0v9.955a1 1 0 0 1-1 1ZM31.371 11.955a1 1 0 0 1-1-1V4.549a1 1 0 1 1 2 0v6.406a1 1 0 0 1-1 1Z"/></g></svg>