<svg width="60" height="59" xmlns="http://www.w3.org/2000/svg"><g fill="#F95738" fill-rule="evenodd"><path d="M60 15V5h-6V4c0-2.21-1.79-4-4-4s-4 1.79-4 4v1H34V4c0-2.21-1.79-4-4-4s-4 1.79-4 4v1H13V4c0-2.21-1.79-4-4-4S5 1.79 5 4v1H0v10h5v3H3v35h14.45c1.4 0 2.55-1.14 2.55-2.55v-29.9c0-1.4-1.14-2.55-2.55-2.55H13v-3h13v35.35l5.26 6.58.66-1.53C36.04 45.78 38 38.15 38 20.77V19h-4v-4h12v3h-1v22c0 5.84 1.79 11.43 5.19 16.18L52 58.72V55.6c0-17.61 1.77-25.03 2.95-29.93.59-2.46 1.05-4.4 1.05-6.67v-1h-2v-3h6Zm-2-8v6h-4V7h4ZM2 13V7h3v6H2Zm16 7.55v29.91c0 .3-.25.55-.55.55H16V20h1.45c.3 0 .55.25.55.55ZM14 20v31H5V20h9Zm-3-2H7V4c0-1.1.9-2 2-2s2 .9 2 2v14Zm2-5V7h13v6H13Zm23 8c-.02 15.93-1.72 23.43-5.27 32.06L28 49.65V21h8Zm-4-2h-4V4c0-1.1.9-2 2-2s2 .9 2 2v15Zm2-6V7h12v6H34Zm19 12.2c-1.11 4.66-2.76 11.55-2.98 26.93A25.682 25.682 0 0 1 47 40V20h6.97c-.11 1.64-.49 3.19-.97 5.2ZM52 18h-4V4c0-1.1.9-2 2-2s2 .9 2 2v14Z"/><path d="M30 29c.55 0 1-.45 1-1v-5c0-.55-.45-1-1-1s-1 .45-1 1v5c0 .55.45 1 1 1ZM49 29c.55 0 1-.45 1-1v-5c0-.55-.45-1-1-1s-1 .45-1 1v5c0 .55.45 1 1 1ZM7 29c.55 0 1-.45 1-1v-5c0-.55-.45-1-1-1s-1 .45-1 1v5c0 .55.45 1 1 1Z"/></g></svg>