<svg xmlns="http://www.w3.org/2000/svg" width="48" height="77"><g fill="#F95738" fill-rule="evenodd"><path d="M18.6 13.4c.3.5.8.7 1.3.7.3 0 .5-.1.8-.2.7-.4.9-1.4.5-2.1-.1-.1-1.3-2.2-.1-3.8 2.5-3.3.2-7 .1-7.2-.4-.7-1.4-.9-2.1-.5-.7.4-.9 1.4-.5 2.1 0 0 1.3 2.1.1 3.7-2.5 3.4-.2 7.2-.1 7.3ZM45.6 28.1c-1.5-1.7-3.6-2.8-5.8-3.1 0-1.2 0-2.2-.1-3.1-.1-2.2-1.8-3.9-4-3.9H4.1c-2.2 0-4 1.7-4 3.9-.3 9.5-.3 32.8 7 43.7 1.1 1.7 3.1 2.7 5.2 2.7h15.2c2.1 0 4-1 5.2-2.7 1.2-1.8 2.3-4.1 3.1-6.5h.7c4.9 0 9.1-3.7 9.6-8.5l1.8-14.9c.3-2.8-.5-5.6-2.3-7.6ZM30.2 63.8c-.6.9-1.6 1.4-2.7 1.4H12.3c-1.1 0-2.1-.5-2.7-1.4-7-10.5-6.7-34.7-6.5-41.9 0-.5.5-1 1-1h31.5c.6 0 1 .4 1 1 .3 7.2.6 31.5-6.4 41.9Zm14.7-28.6-1.8 14.9c-.4 3.3-3.1 5.7-6.4 5.8 2.5-9 3-20.1 3.1-28 1.4.3 2.6 1 3.5 2.1 1.3 1.5 1.9 3.3 1.6 5.2ZM33.1 73.2H6.7c-.8 0-1.5.7-1.5 1.5s.7 1.5 1.5 1.5h26.4c.8 0 1.5-.7 1.5-1.5s-.7-1.5-1.5-1.5Z"/><path d="M9.4 31.3c0-.8-.7-1.5-1.5-1.5s-1.5.7-1.5 1.5c.1 9.1 1 21.5 4.3 28.9.3.6.8.9 1.4.9.2 0 .4 0 .6-.1.8-.3 1.1-1.2.7-2-3.3-7.3-3.9-20.4-4-27.7ZM7.9 27.8c.8 0 1.5-.7 1.5-1.5v-1.7c0-.8-.6-1.5-1.4-1.6-.8 0-1.5.6-1.6 1.4v1.8c0 .9.6 1.6 1.5 1.6Z"/></g></svg>