<svg width="30" height="48" xmlns="http://www.w3.org/2000/svg"><g fill="#F95738" fill-rule="evenodd"><path d="M20.8 36.6H9.2c-.6 0-1-.4-1-1v-8.1c-1.6-1.1-2.6-2.9-2.6-4.9 0-3.3 2.7-5.9 5.9-5.9 1.3 0 2.5.4 3.5 1.1 1-.7 2.2-1.1 3.5-1.1 3.3 0 5.9 2.7 5.9 5.9 0 2-1 3.8-2.6 4.9v8.1c0 .5-.4 1-1 1Zm-10.6-2h9.6v-7.7c0-.4.2-.7.5-.9 1.3-.7 2.1-2 2.1-3.5 0-2.2-1.8-3.9-3.9-3.9-1.1 0-2 .4-2.8 1.2-.4.4-1 .4-1.4 0-.7-.7-1.7-1.2-2.8-1.2-2.2 0-3.9 1.8-3.9 3.9 0 1.5.8 2.8 2.1 3.5.3.2.5.5.5.9v7.7Z"/><path d="M11.5 28.5c-3.3 0-5.9-2.7-5.9-5.9 0-.6.4-1 1-1s1 .4 1 1c0 2.2 1.8 3.9 3.9 3.9.7 0 1.5-.2 2.1-.6.5-.3 1.1-.2 1.4.3.3.5.2 1.1-.3 1.4-1 .5-2.1.9-3.2.9Z"/><path d="M28.4 47.5H1.6c-.6 0-1-.4-1-1V9.4c0-.6.4-1 1-1h26.8c.6 0 1 .4 1 1v37.1c0 .6-.4 1-1 1Zm-25.8-2h24.8V10.4H2.6v35.1Z"/><path d="M1.6 10.4c-.5 0-.9-.3-1-.8-.1-.6.3-1.1.8-1.2.1 0 13.8-2.9 18.1-7.5.3-.3.7-.4 1.1-.3.4.1.6.5.6.9v7.9c0 .6-.4 1-1 1s-1-.4-1-1V3.7c-5.7 4.2-16.9 6.5-17.4 6.6-.1 0-.1.1-.2.1Z"/></g></svg>