<svg width="48" height="38" xmlns="http://www.w3.org/2000/svg"><g fill="#F95738" fill-rule="evenodd"><path d="M24 32.154c-10.943 0-19.846-8.339-19.846-18.588a1 1 0 0 1 1-1h37.692a1 1 0 0 1 1 1c0 10.249-8.903 18.588-19.846 18.588ZM6.186 14.566C6.744 23.249 14.521 30.154 24 30.154s17.256-6.905 17.813-15.588H6.186ZM28.857 10.282a1 1 0 0 1-1-1V3.9a1 1 0 1 1 2 0v5.382a1 1 0 0 1-1 1ZM24 10.282a1 1 0 0 1-1-1V1.23a1 1 0 0 1 2 0v8.052a1 1 0 0 1-1 1ZM19.142 10.282a1 1 0 0 1-1-1V3.9a1 1 0 0 1 2 0v5.382a1 1 0 0 1-1 1ZM41.584 37.77H6.416a1 1 0 1 1 0-2h35.168a1 1 0 1 1 0 2Z"/><path d="M47 17.167h-3.857a1 1 0 1 1 0-2H47a1 1 0 1 1 0 2ZM4.858 17.167H1a1 1 0 0 1 0-2h3.858a1 1 0 0 1 0 2Z"/></g></svg>