<svg width="24" height="26" xmlns="http://www.w3.org/2000/svg"><path d="M23.394 8.179c-3.54-4.223-8.483-6.206-13.015-5.267-.147-.77-.461-1.454-1.112-1.842a.501.501 0 0 0-.512.86c.813.484.764 2.211.731 3.354-.007.248-.012.464-.011.665-2.492-.207-4.654.448-6.265 1.939C1.31 9.646.326 12.432.511 15.531c.052.878.204 1.944.508 3.563.176.938.404 2.323.492 3.593.046.662.356 1.267.872 1.703a2.606 2.606 0 0 0 1.927.598c10.109-.993 11.2-8.364 11.2-11.487 0-3.794-2.575-6.828-5.033-7.417a15.02 15.02 0 0 1 .009-.773l.002-.1c2.514 3.109 7.128 3.365 10.03 3.526 1.001.056 1.866.104 2.354.244a.502.502 0 0 0 .522-.802Zm-8.884 5.322c0 3.54-1.338 9.612-10.297 10.492a1.603 1.603 0 0 1-1.184-.367 1.443 1.443 0 0 1-.52-1.009c-.092-1.317-.327-2.743-.508-3.708-.196-1.047-.429-2.383-.492-3.438-.166-2.799.701-5.295 2.38-6.849 1.228-1.137 2.837-1.721 4.708-1.721.434 0 .883.032 1.345.096h.004c2.159.28 4.564 3.02 4.564 6.504Zm6.063-5.761c-3.128-.173-7.778-.431-9.817-3.892 3.747-.706 7.799.773 10.949 3.962-.343-.026-.722-.047-1.132-.07ZM7.627 21.69a.5.5 0 0 0 .651.273c1.26-.514 2.308-1.23 3.117-2.128 1.404-1.558 2.115-3.689 2.115-6.335a.5.5 0 0 0-1 0c0 2.391-.625 4.297-1.858 5.666-.707.785-1.632 1.415-2.751 1.872a.5.5 0 0 0-.274.652Z" fill="#F95738" fill-rule="evenodd"/></svg>